<svg xmlns="http://www.w3.org/2000/svg" viewBox="0 0 541.97 535.5"><defs><style>.cls-1{fill:#f3ff00;}.cls-11,.cls-2{fill:#fff;}.cls-2{stroke:#fff;}.cls-13,.cls-15,.cls-18,.cls-2,.cls-3,.cls-4,.cls-6{stroke-miterlimit:10;}.cls-15,.cls-18,.cls-3,.cls-4{fill:none;}.cls-3{stroke:#f3ff00;}.cls-3,.cls-4{stroke-width:7px;}.cls-4{stroke:#2b2b2a;}.cls-5{fill:#646061;}.cls-6{fill:#0f0f0f;}.cls-13,.cls-15,.cls-6{stroke:#000;}.cls-7{fill:#f0bea4;}.cls-8{fill:#f6bca0;}.cls-9{fill:#ea946f;}.cls-10{fill:#d7a984;}.cls-12{fill:#383a46;}.cls-14{fill:#eb946d;}.cls-16{fill:#e5e5e5;}.cls-17{fill:#939292;}.cls-18{stroke:#f9f7f7;}</style></defs><title>Asset 1</title><g id="Layer_2" data-name="Layer 2"><g id="Circle"><circle class="cls-1" cx="271.62" cy="269.58" r="255.52"/><path class="cls-2" d="M235.48,200.17,230,206.5C238.14,202.83,235.48,200.17,235.48,200.17Z"/><path class="cls-3" d="M3.48,228.5c2.19-18.81,13.9-101.37,87-164,67.65-58,143.55-60.87,164-61"/><path class="cls-4" d="M538.36,272.77c.58,18.93,1.06,102.31-62.1,175C417.81,515,343.14,528.92,322.94,532"/></g><g id="Bawahan"><path class="cls-5" d="M169.54,127.41,184.7,105l14.14-19.5s17.9-10.5,21-12S244.41,65,244.41,65l32.85-6.5L290,64l20.8,18,19.36,21.4Z"/><path class="cls-6" d="M157.48,136.5c-15,14.51-20.88,28.35-23.5,38,0,0-3.6,13.23,2.5,65.5.83,3,17.11,59.41,60,67.5a58.17,58.17,0,0,0,23.38-.5l118.62-15.7c13.14-4.71,41.24-16.77,58-42.8,7.3-11.34,9-20,9.5-23,3-18.17-4.15-33-7.5-39q-13.28-18.25-26.54-36.5l-21.22-31.5c-7.71-7.26-25.6-22-52.24-26a92.87,92.87,0,0,0-27.52,0l-31,12L219.86,111,196,115a107,107,0,0,0-38.53,21.5Z"/><g id="Background"><path class="cls-7" d="M330.14,292.5,305,314.5l-22.5,7.5L264,323l-30.5-13-13.94-9.31c1.36,3.19,9.15,22.28-.31,41.81a48.52,48.52,0,0,1-16.75,19c-1.56,3-5.07,10.82-3,20,1.66,7.4,6.3,11.79,13.5,18.5,6.55,6.12,14,13.1,25.83,17.83,12.34,5,22.22,4.57,40.83,3.84,11.52-.46,23.73-1,39-5.84,11.49-3.62,22.81-7.19,33.5-17.33A66.49,66.49,0,0,0,369.31,371a21.28,21.28,0,0,0,2.56-15.27,21.57,21.57,0,0,0-10.06-13.65l-6-2.58A40.09,40.09,0,0,1,337,325.9C326.23,311.61,329.57,295.13,330.14,292.5Z"/><path class="cls-8" d="M198.88,168.74c-12.49,25.7-7.23,50.32-5.67,56.71q-1.94-4.89-3.88-9.8c-3-3-5-3.49-6.32-3.09-7.32,2.19-11.91,34.49,3.28,52.19A36.25,36.25,0,0,0,204.87,276c3.17,8,12,27,31.89,39.87a75.17,75.17,0,0,0,26.39,10.66c7,.4,33.06,1,55.37-18.74a80.94,80.94,0,0,0,20.64-29.21q4.43-12.07,8.84-24.14a93.36,93.36,0,0,0,12.28-25.61,96.87,96.87,0,0,0,3.89-35.31c-.54-1.72-2.12-5.93-5.34-7-4.5-1.44-11.54,3.51-14.57,13.66-.1-2.39-2.58-45.67-38.7-66.85C281.14,119,250.93,120.43,227.37,137A77.34,77.34,0,0,0,198.88,168.74Z"/><path class="cls-9" d="M219.86,301.45c3.34,3.7,25.44,27.37,58,25.62,5.18-.28,30.48-1.66,45.2-21.05a47.5,47.5,0,0,0,7.12-13.52c-.64,6.7-3.57,28.26-21,43-21.85,18.53-57.65,18.91-86.91-1a52.64,52.64,0,0,0,1.62-12.37A53.2,53.2,0,0,0,219.86,301.45Z"/><path class="cls-10" d="M237.62,281.31c.87,1.24,15.52,21.16,39.25,19.69,19.56-1.21,36.76-16.43,41.25-37.44a105.46,105.46,0,0,1-80.5,17.75Z"/><path class="cls-11" d="M244.41,285.15c15.17,12.72,35.18,15.48,50,7.2,12.05-6.7,16.71-18.43,18.11-22.47a96.19,96.19,0,0,1-68.15,15.27Z"/><path d="M216.08,210.12a15.85,15.85,0,0,1,27.27-13,19.24,19.24,0,0,0-27.27,13Z"/><path d="M295.21,192.65a15.86,15.86,0,0,1,30,3.43,19.24,19.24,0,0,0-30-3.43Z"/></g><path class="cls-12" d="M202.48,361.5q-27.82,16.65-56,34-34.24,21.08-67.33,42.14c9.8,11.28,82,91.5,199,88.86,130.6-3,201.71-106.49,208-116l2-.94L361,341.75a20.26,20.26,0,0,1,7.9,8.38c6.92,14.56-7.94,36.23-19.45,45.37a111.74,111.74,0,0,1-29.61,16.88A114.73,114.73,0,0,1,280,419.75c-9.27.22-23.61.42-40.76-5.73a100.37,100.37,0,0,1-28-15.49,28.88,28.88,0,0,1-12-18.26A28.52,28.52,0,0,1,202.48,361.5Z"/><circle class="cls-13" cx="235.89" cy="216.25" r="5"/><circle class="cls-13" cx="310.23" cy="205.96" r="5.25"/><path class="cls-13" d="M185.66,232.84a18.2,18.2,0,0,0-.88,7.51c.95,9.85,9.94,15.28,11.23,16Z"/><path class="cls-13" d="M353,201.62h0c2.37,9.36,2.5,10.19,2.5,10.19.65,3.91.26,9.77-4.73,17.93Q351.83,215.67,353,201.62Z"/><circle class="cls-14" cx="226.85" cy="248.38" r="8.38"/><circle class="cls-14" cx="326.49" cy="234.22" r="7.99"/><path class="cls-15" d="M273.21,223.63a156.68,156.68,0,0,1,4,30.37c.07,2.56.15,6.37-1.13,6.75-1.5.44-4.14-4-6.19-7.88"/><path class="cls-16" d="M310.77,274.29c.28.46-7.67,7.79-19.8,12.44-20.61,7.92-40.52,3.22-40.51,2.82s12.27,2.27,29-1.64C298.29,283.5,310.44,273.73,310.77,274.29Z"/><path class="cls-14" d="M316.79,141.84a66.9,66.9,0,0,0-25-16c-20.63-7.33-39.19-2-47.18.45a70.88,70.88,0,0,0-16.75,7.11c-24.49,14.57-32,40.29-33.93,46.88a92.66,92.66,0,0,0-3.58,24.4c-.25,9.61,1,16.57,3.61,30.5a311.71,311.71,0,0,0,10,38.08,84.67,84.67,0,0,0,5.38,13.1c4.45,8.64,10.32,16.24,11.12,15.78s-6.13-11.09-12.63-28.88c-5.44-14.91-7.59-26.93-9.37-36.92-1.13-6.31-3.84-21.14-3.17-33.5a102.34,102.34,0,0,1,3.17-20.66c.81-3,9.07-32.65,34.5-47.17C257.51,121,290.06,124.09,316.79,141.84Z"/><path class="cls-17" d="M180.51,111.19c0-.14,5.75-2.3,19.63-7.94,11.94-4.85,18-7.11,19.71-7.75,20.41-7.47,21.58-4.08,45-11.5,10.49-3.32,16.68-6,27.29-6.29a68.37,68.37,0,0,1,14.34,1c0,.15-7.25-.72-15.05-.33-9.73.48-13.18,2.57-28.33,6.83-16,4.51-39.88,10-47.54,13-1.59.63-5.73,2.3-11.83,4.63C192.23,107.3,180.59,111.39,180.51,111.19Z"/><path class="cls-18" d="M309.18,201.78a4.66,4.66,0,0,1,4.08,1.5,4.56,4.56,0,0,1,.82,3.93"/><path class="cls-18" d="M234.81,212.17a4.61,4.61,0,0,1,4.07,1.49,4.55,4.55,0,0,1,.83,3.93"/></g></g></svg>