<svg xmlns="http://www.w3.org/2000/svg" xmlns:xlink="http://www.w3.org/1999/xlink" viewBox="0 0 1996.12 1443.05"><defs><style>.cls-1{fill:#f3ff00;}.cls-14,.cls-2{fill:#fff;}.cls-2{stroke:#fff;}.cls-10,.cls-12,.cls-13,.cls-17,.cls-2,.cls-21,.cls-3,.cls-4,.cls-6{stroke-miterlimit:10;}.cls-10,.cls-21,.cls-3,.cls-4,.cls-9{fill:none;}.cls-3{stroke:#f3ff00;}.cls-3,.cls-4{stroke-width:7px;}.cls-4{stroke:#2b2b2a;}.cls-5{fill:#646061;}.cls-6{fill:#0f0f0f;}.cls-10,.cls-12,.cls-13,.cls-17,.cls-6{stroke:#000;}.cls-7{fill:#f0bea4;}.cls-12,.cls-8{fill:#f6bca0;}.cls-11{fill:#ea946f;}.cls-13{fill:#f9d56e;}.cls-15{fill:#d7a984;}.cls-16{fill:#383a46;}.cls-18{fill:#eb946d;}.cls-19{fill:#e5e5e5;}.cls-20{fill:#939292;}.cls-21{stroke:#f9f7f7;}</style></defs><title>Hero Portfolio</title><g id="Circle"><circle class="cls-1" cx="1725.78" cy="1177.13" r="255.52"/><path class="cls-2" d="M380,242.67,374.5,249C382.67,245.33,380,242.67,380,242.67Z" transform="translate(1309.63 865.05)"/><path class="cls-3" d="M148,271c2.19-18.81,13.9-101.37,87-164,67.65-58,143.56-60.87,164-61" transform="translate(1309.63 865.05)"/><path class="cls-4" d="M682.88,315.27c.59,18.93,1.07,102.31-62.09,175-58.46,67.23-133.12,81.2-153.33,84.32" transform="translate(1309.63 865.05)"/></g><g id="Bawahan"><path class="cls-5" d="M314.06,169.91l15.16-22.41L343.36,128s17.9-10.5,21-12,24.55-8.5,24.55-8.5l32.85-6.5,12.72,5.5,20.8,18,19.37,21.4Z" transform="translate(1309.63 865.05)"/><path class="cls-6" d="M302,179c-15,14.51-20.87,28.35-23.5,38,0,0-3.6,13.23,2.5,65.5.83,3,17.12,59.41,60,67.5a58.17,58.17,0,0,0,23.38-.5L483,333.8c13.15-4.71,41.24-16.77,58-42.8,7.3-11.34,9-20,9.5-23,3-18.17-4.15-33-7.5-39l-26.54-36.5L495.24,161c-7.71-7.26-25.6-22-52.24-26a92.88,92.88,0,0,0-27.52,0l-31,12-20.12,6.5-23.85,4A107,107,0,0,0,302,179Z" transform="translate(1309.63 865.05)"/><g id="Background"><path class="cls-7" d="M474.67,335,449.5,357,427,364.5l-18.5,1-30.5-13-13.94-9.31c1.37,3.19,9.15,22.28-.31,41.81A48.36,48.36,0,0,1,347,404c-1.56,3-5.07,10.82-3,20,1.67,7.4,6.31,11.79,13.5,18.5,6.56,6.12,14,13.1,25.83,17.83,12.34,5,22.22,4.57,40.84,3.84,11.51-.46,23.73-1,39-5.84,11.48-3.62,22.81-7.19,33.5-17.33a66.44,66.44,0,0,0,17.16-27.5,21.28,21.28,0,0,0,2.56-15.27,21.57,21.57,0,0,0-10.06-13.65l-6-2.58a40,40,0,0,1-18.85-13.6C470.75,354.11,474.09,337.63,474.67,335Z" transform="translate(1309.63 865.05)"/><path class="cls-8" d="M343.4,211.24c-12.48,25.7-7.23,50.32-5.67,56.71q-1.94-4.89-3.88-9.8c-3-3-5-3.49-6.32-3.09-7.32,2.19-11.9,34.49,3.28,52.19a36.29,36.29,0,0,0,18.58,11.22c3.17,8,12,27,31.89,39.87A75.25,75.25,0,0,0,407.67,369c7,.4,33.07,1,55.37-18.74a80.68,80.68,0,0,0,20.64-29.21l8.85-24.14a94,94,0,0,0,12.28-25.61A96.82,96.82,0,0,0,508.69,236c-.54-1.72-2.11-5.93-5.34-7-4.49-1.44-11.53,3.51-14.57,13.66-.1-2.39-2.57-45.67-38.69-66.85-24.43-14.33-54.63-12.91-78.2,3.61A77.41,77.41,0,0,0,343.4,211.24Z" transform="translate(1309.63 865.05)"/><path class="cls-9" d="M498.25,316.25" transform="translate(1309.63 865.05)"/><path class="cls-10" d="M513.75,304.5" transform="translate(1309.63 865.05)"/><path class="cls-10" d="M350.33,276.83" transform="translate(1309.63 865.05)"/><path class="cls-10" d="M437.5,196" transform="translate(1309.63 865.05)"/><path class="cls-11" d="M364.38,344c3.34,3.7,25.45,27.37,58,25.62,5.19-.28,30.48-1.66,45.2-21.05A47.31,47.31,0,0,0,474.67,335c-.64,6.7-3.57,28.26-21,43C431.8,396.57,396,397,366.74,377a52.59,52.59,0,0,0,1.63-12.37A53.17,53.17,0,0,0,364.38,344Z" transform="translate(1309.63 865.05)"/><path class="cls-11" d="M377.59,580.08" transform="translate(1309.63 865.05)"/><path class="cls-12" d="M446.5,326.5" transform="translate(1309.63 865.05)"/><image width="890" height="395" xlink:href="../figma/banner-pensamento-positivo-isolamento-890x395_c.jpg"/><path class="cls-13" d="M717.85,372.83" transform="translate(1309.63 865.05)"/><path class="cls-14" d="M539.33,308.33" transform="translate(1309.63 865.05)"/><path class="cls-15" d="M382.14,323.81c.88,1.24,15.52,21.16,39.25,19.69,19.56-1.21,36.76-16.43,41.25-37.44a105.46,105.46,0,0,1-80.5,17.75Z" transform="translate(1309.63 865.05)"/><path class="cls-14" d="M388.93,327.65c15.17,12.72,35.18,15.48,50.05,7.2,12-6.7,16.71-18.43,18.11-22.47a96.23,96.23,0,0,1-68.16,15.27Z" transform="translate(1309.63 865.05)"/><path class="cls-14" d="M457.38,336.75" transform="translate(1309.63 865.05)"/><path class="cls-15" d="M430.13,312.5" transform="translate(1309.63 865.05)"/><path d="M360.61,252.62a15.85,15.85,0,0,1,27.27-13,19.23,19.23,0,0,0-27.27,13Z" transform="translate(1309.63 865.05)"/><path class="cls-8" d="M351.75,220.83" transform="translate(1309.63 865.05)"/><path d="M439.74,235.15a15.85,15.85,0,0,1,30,3.43,19.23,19.23,0,0,0-30-3.43Z" transform="translate(1309.63 865.05)"/><path class="cls-7" d="M477,341.5" transform="translate(1309.63 865.05)"/><path class="cls-10" d="M418,87.33" transform="translate(1309.63 865.05)"/><path class="cls-7" d="M391.67,474.83" transform="translate(1309.63 865.05)"/></g><path class="cls-16" d="M347,404q-27.83,16.65-56,34-34.23,21.08-67.33,42.14c9.81,11.28,82,91.5,199,88.86,130.59-3,201.71-106.49,208-116l2-.94L505.55,384.25a20.26,20.26,0,0,1,7.9,8.38c6.93,14.56-7.93,36.23-19.45,45.37a111.57,111.57,0,0,1-29.61,16.88,114.73,114.73,0,0,1-39.89,7.37c-9.26.22-23.61.42-40.76-5.73a100.51,100.51,0,0,1-28-15.49,28.92,28.92,0,0,1-11.95-18.26A28.52,28.52,0,0,1,347,404Z" transform="translate(1309.63 865.05)"/><circle class="cls-17" cx="1690.05" cy="1123.81" r="5"/><circle class="cls-17" cx="1764.39" cy="1113.51" r="5.25"/><path class="cls-17" d="M330.18,275.34a18.2,18.2,0,0,0-.88,7.51c.95,9.85,9.94,15.28,11.23,16Z" transform="translate(1309.63 865.05)"/><path class="cls-17" d="M497.47,244.12h0c2.37,9.36,2.51,10.19,2.51,10.19.64,3.91.26,9.77-4.74,17.93Q496.35,258.17,497.47,244.12Z" transform="translate(1309.63 865.05)"/><path class="cls-17" d="M521.1,258.18" transform="translate(1309.63 865.05)"/><circle class="cls-18" cx="1681" cy="1155.93" r="8.38"/><circle class="cls-18" cx="1780.64" cy="1141.77" r="7.99"/><path class="cls-10" d="M417.73,266.13a155.89,155.89,0,0,1,4,30.37c.07,2.56.16,6.37-1.12,6.75-1.5.44-4.15-4-6.19-7.87" transform="translate(1309.63 865.05)"/><path class="cls-19" d="M455.3,316.79c.28.46-7.68,7.79-19.81,12.44-20.6,7.92-40.52,3.22-40.5,2.82s12.26,2.27,29-1.64C442.82,326,455,316.23,455.3,316.79Z" transform="translate(1309.63 865.05)"/><path class="cls-16" d="M430.88,335.13" transform="translate(1309.63 865.05)"/><path class="cls-5" d="M312,153.75" transform="translate(1309.63 865.05)"/><path class="cls-16" d="M444.33,448.67" transform="translate(1309.63 865.05)"/><path class="cls-16" d="M519.83,377.67" transform="translate(1309.63 865.05)"/><path class="cls-18" d="M461.31,184.34a66.83,66.83,0,0,0-25-16c-20.63-7.33-39.18-2-47.18.45a71,71,0,0,0-16.75,7.11c-24.49,14.57-32,40.29-33.93,46.88a93,93,0,0,0-3.57,24.4c-.26,9.61,1,16.57,3.6,30.5a316,316,0,0,0,10,38.08,85.89,85.89,0,0,0,5.39,13.1c4.45,8.64,10.31,16.24,11.11,15.78s-6.13-11.09-12.62-28.88c-5.45-14.91-7.6-26.93-9.38-36.92-1.13-6.31-3.84-21.14-3.17-33.5A103.81,103.81,0,0,1,343,224.67c.81-3,9.08-32.65,34.5-47.17C402,163.48,434.58,166.59,461.31,184.34Z" transform="translate(1309.63 865.05)"/><path class="cls-16" d="M433.5,180.17" transform="translate(1309.63 865.05)"/><path class="cls-16" d="M353.67,232.33" transform="translate(1309.63 865.05)"/><path class="cls-20" d="M325,153.69c0-.14,5.75-2.3,19.64-7.94,11.93-4.85,18-7.11,19.71-7.75,20.4-7.47,21.58-4.08,45-11.5,10.48-3.32,16.67-6,27.29-6.29a68.32,68.32,0,0,1,14.33,1c0,.15-7.24-.72-15-.33-9.73.48-13.19,2.57-28.33,6.83-16,4.51-39.89,10-47.55,13-1.59.63-5.73,2.3-11.83,4.63C336.75,149.8,325.11,153.89,325,153.69Z" transform="translate(1309.63 865.05)"/><path class="cls-21" d="M453.7,244.28a4.65,4.65,0,0,1,4.08,1.5,4.52,4.52,0,0,1,.82,3.93" transform="translate(1309.63 865.05)"/><path class="cls-21" d="M379.33,254.67a4.64,4.64,0,0,1,4.08,1.49,4.56,4.56,0,0,1,.82,3.93" transform="translate(1309.63 865.05)"/><path class="cls-16" d="M221.92,481.09" transform="translate(1309.63 865.05)"/></g></svg>